<svg width="57" height="57" viewBox="0 0 57 57" fill="none" xmlns="http://www.w3.org/2000/svg">
    <path d="M54 28.5C54 42.5833 42.5833 54 28.5 54C14.4167 54 3 42.5833 3 28.5C3 14.4167 14.4167 3 28.5 3C42.5833 3 54 14.4167 54 28.5Z" stroke="#9CB9CB" stroke-width="6"/>
    <mask id="path-2-inside-1_119_3" fill="white">
    <path d="M0.384924 33.1682C1.30822 38.7289 3.85969 43.8909 7.71671 48.0014C11.5737 52.1119 16.563 54.9864 22.0537 56.2614C27.5444 57.5364 33.2899 57.1545 38.5635 55.1641C43.8372 53.1737 48.4022 49.6642 51.6813 45.0794C54.9604 40.4946 56.8063 35.0403 56.9856 29.4064C57.1649 23.7725 55.6695 18.212 52.6885 13.4279C49.7075 8.6439 45.3748 4.85127 40.2384 2.52963C35.1019 0.207996 29.3924 -0.538367 23.8318 0.384924L24.8028 6.23312C29.2068 5.50188 33.7287 6.093 37.7967 7.93171C41.8647 9.77042 45.2961 12.7742 47.6571 16.5631C50.018 20.352 51.2023 24.7559 51.0603 29.2179C50.9183 33.6799 49.4564 37.9996 46.8594 41.6307C44.2624 45.2619 40.6469 48.0414 36.4702 49.6177C32.2935 51.1941 27.7432 51.4965 23.3946 50.4868C19.046 49.477 15.0945 47.2004 12.0398 43.9449C8.98511 40.6894 6.96436 36.6012 6.23312 32.1972L0.384924 33.1682Z"/>
    </mask>
    <path d="M0.384924 33.1682C1.30822 38.7289 3.85969 43.8909 7.71671 48.0014C11.5737 52.1119 16.563 54.9864 22.0537 56.2614C27.5444 57.5364 33.2899 57.1545 38.5635 55.1641C43.8372 53.1737 48.4022 49.6642 51.6813 45.0794C54.9604 40.4946 56.8063 35.0403 56.9856 29.4064C57.1649 23.7725 55.6695 18.212 52.6885 13.4279C49.7075 8.6439 45.3748 4.85127 40.2384 2.52963C35.1019 0.207996 29.3924 -0.538367 23.8318 0.384924L24.8028 6.23312C29.2068 5.50188 33.7287 6.093 37.7967 7.93171C41.8647 9.77042 45.2961 12.7742 47.6571 16.5631C50.018 20.352 51.2023 24.7559 51.0603 29.2179C50.9183 33.6799 49.4564 37.9996 46.8594 41.6307C44.2624 45.2619 40.6469 48.0414 36.4702 49.6177C32.2935 51.1941 27.7432 51.4965 23.3946 50.4868C19.046 49.477 15.0945 47.2004 12.0398 43.9449C8.98511 40.6894 6.96436 36.6012 6.23312 32.1972L0.384924 33.1682Z" stroke="#1DA1F2" stroke-width="12" mask="url(#path-2-inside-1_119_3)"/>
</svg>
